<svg width="81" height="81" viewBox="0 0 81 81" fill="none" xmlns="http://www.w3.org/2000/svg">
<circle cx="40.5" cy="40.5" r="40.5" fill="#2B2D31"/>
<path d="M60 42V56C60 57.0609 59.5786 58.0783 58.8284 58.8284C58.0783 59.5786 57.0609 60 56 60H52C50.9391 60 49.9217 59.5786 49.1716 58.8284C48.4214 58.0783 48 57.0609 48 56V46C48 44.9391 48.4214 43.9217 49.1716 43.1716C49.9217 42.4214 50.9391 42 52 42H56C56 37.7565 54.3143 33.6869 51.3137 30.6863C48.3131 27.6857 44.2435 26 40 26C35.7565 26 31.6869 27.6857 28.6863 30.6863C25.6857 33.6869 24 37.7565 24 42H28C29.0609 42 30.0783 42.4214 30.8284 43.1716C31.5786 43.9217 32 44.9391 32 46V56C32 57.0609 31.5786 58.0783 30.8284 58.8284C30.0783 59.5786 29.0609 60 28 60H24C22.9391 60 21.9217 59.5786 21.1716 58.8284C20.4214 58.0783 20 57.0609 20 56V42C20 30.954 28.954 22 40 22C51.046 22 60 30.954 60 42Z" fill="#878F9A"/>
</svg>
