<svg width="81" height="81" viewBox="0 0 81 81" fill="none" xmlns="http://www.w3.org/2000/svg">
<circle cx="40.5" cy="40.5" r="40.5" fill="#2B2D31"/>
<path d="M32.1758 27.6924C32.1758 23.444 35.6198 20 39.8682 20C44.1165 20 47.5605 23.444 47.5605 27.6924V41.154C47.5605 45.4023 44.1165 48.8464 39.8682 48.8464C35.6198 48.8464 32.1758 45.4023 32.1758 41.154V27.6924Z" fill="#878F9A"/>
<path d="M28.8077 40.8538V41.1541C28.8077 44.0869 29.9727 46.8994 32.0465 48.9732C34.1202 51.0469 36.9328 52.2119 39.8655 52.2119C42.7982 52.2119 45.6108 51.0469 47.6846 48.9732C49.7583 46.8994 50.9233 44.0869 50.9233 41.1541V40.8538C50.9233 39.7916 51.7843 38.9307 52.8464 38.9307H53.8079C54.8701 38.9307 55.731 39.7916 55.731 40.8536V41.1541C55.731 45.3619 54.0595 49.3975 51.0841 52.3727C48.6814 54.7756 45.5873 56.3279 42.2694 56.8366V60.3851C42.2694 61.4472 41.4084 62.3082 40.3463 62.3082H39.3847C38.3226 62.3082 37.4616 61.4472 37.4616 60.3851V56.8366C34.1438 56.3279 31.0497 54.7756 28.6469 52.3727C25.6715 49.3975 24 45.3619 24 41.1541V40.8538C24 39.7916 24.861 38.9307 25.9231 38.9307H26.8846C27.9467 38.9307 28.8077 39.7916 28.8077 40.8538Z" fill="#878F9A"/>
</svg>
