<svg width="81" height="81" viewBox="0 0 81 81" fill="none" xmlns="http://www.w3.org/2000/svg">
<circle cx="40.5" cy="40.5" r="40.5" fill="#2B2D31"/>
<path d="M33.1758 26.6924C33.1758 22.444 36.6198 19 40.8682 19C45.1165 19 48.5605 22.444 48.5605 26.6924V40.154C48.5605 44.4023 45.1165 47.8464 40.8682 47.8464C36.6198 47.8464 33.1758 44.4023 33.1758 40.154V26.6924Z" fill="#878F9A"/>
<path d="M29.8077 39.8538V40.1541C29.8077 43.0869 30.9727 45.8994 33.0465 47.9732C35.1202 50.0469 37.9328 51.2119 40.8655 51.2119C43.7982 51.2119 46.6108 50.0469 48.6846 47.9732C50.7583 45.8994 51.9233 43.0869 51.9233 40.1541V39.8538C51.9233 38.7916 52.7843 37.9307 53.8464 37.9307H54.8079C55.8701 37.9307 56.731 38.7916 56.731 39.8536V40.1541C56.731 44.3619 55.0595 48.3975 52.0841 51.3727C49.6814 53.7756 46.5873 55.3279 43.2694 55.8366V59.3851C43.2694 60.4472 42.4084 61.3082 41.3463 61.3082H40.3847C39.3226 61.3082 38.4616 60.4472 38.4616 59.3851V55.8366C35.1438 55.3279 32.0497 53.7756 29.6469 51.3727C26.6715 48.3975 25 44.3619 25 40.1541V39.8538C25 38.7916 25.861 37.9307 26.9231 37.9307H27.8846C28.9467 37.9307 29.8077 38.7916 29.8077 39.8538Z" fill="#878F9A"/>
<path d="M23 54.9707L59.9708 17.9999" stroke="#2B2D31" stroke-width="2" stroke-linecap="round"/>
<path d="M26 59.9707L62.9708 22.9999" stroke="#2B2D31" stroke-width="2" stroke-linecap="round"/>
<path d="M22 59.9707L58.9708 22.9999" stroke="#E05262" stroke-width="4" stroke-linecap="round"/>
</svg>
