<svg width="28" height="28" viewBox="0 0 28 28" fill="none" xmlns="http://www.w3.org/2000/svg">
<path fill-rule="evenodd" clip-rule="evenodd" d="M27.476 3.16346C27.816 2.8114 28.0042 2.33988 27.9999 1.85045C27.9957 1.36101 27.7994 0.89283 27.4533 0.546735C27.1072 0.200639 26.639 0.00432361 26.1496 7.05646e-05C25.6601 -0.00418248 25.1886 0.183968 24.8365 0.523996L14.0229 11.3376L3.20934 0.523996C2.85728 0.183968 2.38576 -0.00418248 1.89632 7.05646e-05C1.40689 0.00432361 0.938705 0.200639 0.59261 0.546735C0.246515 0.89283 0.0501991 1.36101 0.045946 1.85045C0.041693 2.33988 0.229843 2.8114 0.569872 3.16346L11.3835 13.9771L0.569872 24.7907C0.391586 24.9629 0.249379 25.1688 0.151549 25.3966C0.0537187 25.6243 0.00222427 25.8693 7.04798e-05 26.1171C-0.00208331 26.365 0.0451461 26.6108 0.139004 26.8402C0.232861 27.0696 0.371467 27.278 0.546734 27.4533C0.722 27.6285 0.930417 27.7671 1.15982 27.861C1.38923 27.9549 1.63503 28.0021 1.88289 27.9999C2.13074 27.9978 2.37569 27.9463 2.60343 27.8484C2.83117 27.7506 3.03714 27.6084 3.20934 27.4301L14.0229 16.6165L24.8365 27.4301C25.1886 27.7702 25.6601 27.9583 26.1496 27.9541C26.639 27.9498 27.1072 27.7535 27.4533 27.4074C27.7994 27.0613 27.9957 26.5931 27.9999 26.1037C28.0042 25.6142 27.816 25.1427 27.476 24.7907L16.6624 13.9771L27.476 3.16346Z" fill="#878F9A"/>
</svg>
